<?xml version="1.0" encoding="iso-8859-1"?>
<!-- Generator: Adobe Illustrator 17.1.0, SVG Export Plug-In . SVG Version: 6.00 Build 0)  -->
<!DOCTYPE svg PUBLIC "-//W3C//DTD SVG 1.1//EN" "http://www.w3.org/Graphics/SVG/1.1/DTD/svg11.dtd">
<svg version="1.1" id="Capa_1" xmlns="http://www.w3.org/2000/svg" xmlns:xlink="http://www.w3.org/1999/xlink" x="0px" y="0px"
	 viewBox="0 0 436.057 436.057" style="enable-background:new 0 0 436.057 436.057;" xml:space="preserve">
<path d="M427.148,201.582l-59.28-35.272c-8.306-4.943-19.046-2.215-23.987,6.091c-2.247,3.776-2.893,8.051-2.166,12.06l-3.383-2.013
	c-8.305-4.943-19.046-2.215-23.987,6.091c-2.234,3.754-2.887,8.002-2.18,11.99H127.227c-0.503-0.48-1.031-0.918-1.586-1.293
	l-31.645-21.38c-3.084-2.084-8.218-3.656-11.942-3.656H8.06c-3.16,0-5.758,1.382-7.126,3.792c-1.369,2.41-1.226,5.349,0.393,8.064
	l18.033,30.241c0.464,0.778,0.464,2.689,0,3.467L1.325,250.004c-1.618,2.714-1.761,5.653-0.392,8.063
	c1.369,2.41,3.966,3.792,7.126,3.792h73.995c3.724,0,8.857-1.572,11.942-3.656l31.644-21.381c0.555-0.375,1.083-0.813,1.586-1.293
	h184.942c-0.728,4.112-0.015,8.494,2.372,12.315c3.32,5.313,9.023,8.229,14.858,8.229c3.167,0,6.373-0.859,9.256-2.661l3.083-1.926
	c-0.782,4.164-0.083,8.619,2.34,12.495c3.32,5.313,9.023,8.229,14.858,8.229c3.167,0,6.373-0.859,9.256-2.661l59.295-37.048
	c5.435-3.397,8.638-9.212,8.569-15.555S432.656,204.86,427.148,201.582z"/>
<g>
</g>
<g>
</g>
<g>
</g>
<g>
</g>
<g>
</g>
<g>
</g>
<g>
</g>
<g>
</g>
<g>
</g>
<g>
</g>
<g>
</g>
<g>
</g>
<g>
</g>
<g>
</g>
<g>
</g>
</svg>
