<?xml version="1.0" encoding="iso-8859-1"?>
<!-- Generator: Adobe Illustrator 18.0.0, SVG Export Plug-In . SVG Version: 6.00 Build 0)  -->
<!DOCTYPE svg PUBLIC "-//W3C//DTD SVG 1.1//EN" "http://www.w3.org/Graphics/SVG/1.1/DTD/svg11.dtd">
<svg version="1.1" id="Capa_1" xmlns="http://www.w3.org/2000/svg" xmlns:xlink="http://www.w3.org/1999/xlink" x="0px" y="0px"
	 viewBox="0 0 421.624 421.624" style="enable-background:new 0 0 421.624 421.624;" xml:space="preserve">
<g>
	<path d="M326.632,250.392c-9.652-10.39-23.321-16.348-37.504-16.348h-6.79c-1.915,0-3.732,0.844-4.967,2.308
		c-8.05,9.539-17.478,17.166-28.023,22.671c-12.127,6.337-25.094,9.551-38.54,9.551c-13.446,0-26.413-3.213-38.542-9.552
		c-10.542-5.504-19.97-13.131-28.021-22.67c-1.235-1.463-3.052-2.308-4.967-2.308h-6.78c-14.189,0-27.864,5.962-37.518,16.358
		c-9.649,10.391-14.583,24.461-13.535,38.603l9.38,126.6c0.251,3.394,3.079,6.02,6.482,6.02h227.01c3.403,0,6.231-2.625,6.482-6.02
		l9.38-126.6c0-0.001,0-0.002,0-0.002C341.223,274.855,336.285,260.782,326.632,250.392z M285.304,247.044h3.823
		c10.289,0,19.838,3.987,27.046,11.241h-42.496C277.775,254.867,281.666,251.129,285.304,247.044z M210.808,281.573
		c15.023,0,29.511-3.468,43.093-10.289h70.806c2.06,5.242,2.938,10.928,2.509,16.759l-0.03,0.4H94.44l-0.03-0.4
		c-0.432-5.831,0.445-11.516,2.504-16.759h70.801C181.298,278.106,195.785,281.573,210.808,281.573z M99.873,361.775h221.88
		l-1.237,16.693H101.11L99.873,361.775z M98.91,348.775l-1.271-17.159h226.349l-1.271,17.159H98.91z M96.675,318.615l-1.272-17.172
		h230.82l-1.272,17.172H96.675z M132.498,247.044h3.813c3.639,4.085,7.529,7.823,11.626,11.241h-42.49
		C112.658,251.031,122.207,247.044,132.498,247.044z M103.344,408.624l-1.271-17.156h217.48l-1.271,17.156H103.344z"/>
	<path d="M117.936,172.47c11.172,45.43,48.572,78.917,92.871,78.917s81.699-33.487,92.871-78.917
		c13.267-0.954,23.825-14.631,23.825-31.313c0-17.298-11.352-31.371-25.305-31.371c-0.248,0-0.492,0.025-0.739,0.034
		c-3.986-11.268-10.06-21.289-18.108-29.762V14.819c0-2.967-2.009-5.558-4.883-6.296c-44.261-11.364-91.052-11.364-135.313,0
		c-2.875,0.738-4.884,3.329-4.884,6.296v65.23c-8.051,8.477-14.127,18.5-18.115,29.771c-0.247-0.009-0.492-0.034-0.741-0.034
		c-13.953,0-25.305,14.073-25.305,31.371C94.111,157.839,104.669,171.517,117.936,172.47z M314.503,141.157
		c0,7.858-3.515,14.735-8.272,17.294c0.56-4.667,0.854-9.426,0.854-14.261c0-7.249-0.674-14.202-1.959-20.832
		C310.435,125.381,314.503,132.701,314.503,141.157z M231.06,76.544V13.81c4.844,0.378,9.678,0.894,14.497,1.544v61.191H231.06z
		 M258.557,17.446c3.946,0.738,7.882,1.543,11.794,2.466v56.632h-11.794V17.446z M218.06,13.103v63.441h-14.498V13.103
		C208.394,12.969,213.228,12.969,218.06,13.103z M176.065,76.544v-61.19c4.819-0.65,9.653-1.166,14.497-1.544v62.734H176.065z
		 M151.271,19.912c3.912-0.923,7.848-1.728,11.794-2.466v59.099h-11.794V19.912z M147.171,89.544h127.272
		c12.856,13.843,19.642,32.656,19.642,54.646c0,51.94-37.358,94.197-83.278,94.197s-83.278-42.256-83.278-94.197
		C127.529,122.206,134.315,103.393,147.171,89.544z M116.489,123.357c-1.285,6.631-1.96,13.583-1.96,20.832
		c0,4.835,0.294,9.594,0.854,14.261c-4.758-2.559-8.272-9.436-8.272-17.294C107.111,132.701,111.179,125.38,116.489,123.357z"/>
	<path d="M233.307,148.788h8.346c-0.536,0.945-0.846,2.035-0.846,3.2c0,3.59,2.91,6.5,6.5,6.5h9c3.59,0,6.5-2.91,6.5-6.5
		c0-1.164-0.31-2.254-0.846-3.2h3.346c3.59,0,6.5-2.91,6.5-6.5s-2.91-6.5-6.5-6.5h-32c-3.59,0-6.5,2.91-6.5,6.5
		S229.717,148.788,233.307,148.788z"/>
	<path d="M158.807,151.988c0,3.59,2.91,6.5,6.5,6.5h9c3.59,0,6.5-2.91,6.5-6.5c0-1.164-0.31-2.254-0.846-3.2h8.346
		c3.59,0,6.5-2.91,6.5-6.5s-2.91-6.5-6.5-6.5h-32c-3.59,0-6.5,2.91-6.5,6.5s2.91,6.5,6.5,6.5h3.346
		C159.117,149.733,158.807,150.823,158.807,151.988z"/>
	<path d="M192.576,188.988c0,3.59,2.91,6.5,6.5,6.5h23.462c3.59,0,6.5-2.91,6.5-6.5s-2.91-6.5-6.5-6.5h-23.462
		C195.486,182.488,192.576,185.398,192.576,188.988z"/>
</g>
<g>
</g>
<g>
</g>
<g>
</g>
<g>
</g>
<g>
</g>
<g>
</g>
<g>
</g>
<g>
</g>
<g>
</g>
<g>
</g>
<g>
</g>
<g>
</g>
<g>
</g>
<g>
</g>
<g>
</g>
</svg>
