<?xml version="1.0" encoding="iso-8859-1"?>
<!-- Generator: Adobe Illustrator 16.0.0, SVG Export Plug-In . SVG Version: 6.00 Build 0)  -->
<!DOCTYPE svg PUBLIC "-//W3C//DTD SVG 1.1//EN" "http://www.w3.org/Graphics/SVG/1.1/DTD/svg11.dtd">
<svg version="1.1" id="Capa_1" xmlns="http://www.w3.org/2000/svg" xmlns:xlink="http://www.w3.org/1999/xlink" x="0px" y="0px"
	 width="92.035px" height="92.035px" viewBox="0 0 92.035 92.035" style="enable-background:new 0 0 92.035 92.035;"
	 xml:space="preserve">
<g>
	<g>
		<path d="M82.785,60.257c0-15.606-4.366-27.367-12.977-34.947C59.556,16.277,47.225,16.715,44.067,17h-5.571
			c-0.652-2.176-2.765-3.789-5.299-3.789h-2.772c-2.534,0-4.646,1.608-5.306,3.789H5.527v16.603h19.368v1.648
			c0,2.855,2.484,5.183,5.53,5.183h2.772c3.052,0,5.53-2.324,5.53-5.183v-1.648h5.765l0.445,0.01l0.519-0.067
			c0.08-0.01,7.835-0.763,13.505,4.336c4.799,4.31,7.222,11.835,7.222,22.375H82.785z"/>
		<path d="M22.001,10.831h20.08c2.375,0,4.307-1.93,4.307-4.307V4.307C46.388,1.93,44.456,0,42.081,0h-20.08
			c-2.376,0-4.31,1.93-4.31,4.307v2.221C17.691,8.901,19.625,10.831,22.001,10.831z"/>
		<path d="M77.632,64.508l-2.793-3.166l-2.792,3.166c-2.081,2.357-8.877,10.479-8.877,15.858c0,6.434,5.235,11.669,11.669,11.669
			s11.67-5.235,11.67-11.669C86.509,74.986,79.72,66.865,77.632,64.508z M74.839,84.589c-2.326,0-4.223-1.896-4.223-4.227
			c0.007-1.153,1.82-4.271,4.223-7.491c2.41,3.214,4.21,6.331,4.224,7.491C79.062,82.696,77.173,84.589,74.839,84.589z"/>
	</g>
</g>
<g>
</g>
<g>
</g>
<g>
</g>
<g>
</g>
<g>
</g>
<g>
</g>
<g>
</g>
<g>
</g>
<g>
</g>
<g>
</g>
<g>
</g>
<g>
</g>
<g>
</g>
<g>
</g>
<g>
</g>
</svg>
